<?xml version="1.0" standalone="no"?>
<!DOCTYPE svg PUBLIC "-//W3C//DTD SVG 20010904//EN"
 "http://www.w3.org/TR/2001/REC-SVG-20010904/DTD/svg10.dtd">
<svg version="1.0" xmlns="http://www.w3.org/2000/svg"
 width="3000.000000pt" height="2000.000000pt" viewBox="0 0 3000.000000 2000.000000"
 preserveAspectRatio="xMidYMid meet">

<g transform="translate(0.000000,2000.000000) scale(0.100000,-0.100000)"
fill="#000000" stroke="none">
<path d="M2 19613 c3 -379 3 -388 23 -391 11 -2 27 -6 35 -9 8 -3 26 -8 40
-10 179 -27 326 -56 375 -73 61 -22 133 -37 218 -47 39 -4 53 -11 74 -38 40
-50 64 -137 64 -230 -2 -276 5 -421 21 -455 16 -35 23 -95 34 -305 3 -60 12
-140 19 -177 34 -157 54 -324 44 -362 -5 -17 -4 -48 2 -75 6 -25 12 -59 14
-76 1 -16 7 -50 13 -75 6 -25 16 -103 22 -175 7 -71 18 -152 26 -180 11 -37
13 -78 8 -160 -4 -70 -2 -143 6 -198 10 -69 10 -101 0 -152 -9 -49 -9 -80 -1
-129 6 -35 14 -188 16 -339 5 -227 3 -288 -10 -352 -14 -64 -15 -111 -8 -283
12 -328 9 -569 -9 -622 -11 -32 -13 -61 -9 -97 4 -29 4 -58 0 -66 -4 -7 -10
-31 -13 -53 -2 -21 -11 -57 -19 -79 -12 -33 -12 -53 -4 -100 17 -92 10 -300
-12 -357 -12 -33 -13 -78 -5 -235 5 -101 4 -129 -10 -164 -12 -29 -16 -69 -16
-138 1 -53 -4 -134 -10 -181 -18 -150 -29 -283 -30 -372 0 -48 -7 -117 -16
-155 -11 -48 -14 -90 -10 -143 9 -104 8 -119 -10 -167 -9 -23 -14 -52 -11 -64
3 -12 -5 -49 -17 -83 -19 -50 -24 -90 -30 -221 -4 -87 -13 -202 -22 -254 -8
-52 -12 -106 -9 -119 7 -29 -21 -185 -41 -223 -8 -16 -14 -50 -14 -76 0 -26
-5 -79 -11 -118 -5 -38 -11 -134 -12 -211 -3 -137 -4 -143 -30 -177 -36 -47
-50 -86 -37 -101 14 -18 6 -113 -12 -133 -20 -23 -31 -70 -19 -78 17 -10 -1
-108 -29 -165 -19 -38 -30 -79 -35 -131 -7 -72 -6 -76 20 -107 l27 -33 83 5
c46 2 88 7 93 10 6 3 61 18 124 31 62 14 133 30 158 36 25 6 61 10 80 11 19 0
47 6 62 14 15 8 47 14 72 14 49 0 82 -24 93 -68 6 -26 0 -139 -18 -327 -6 -66
-12 -165 -13 -220 -1 -57 -7 -109 -14 -122 -16 -28 -23 -86 -26 -198 -2 -52
-10 -113 -20 -145 -20 -60 -42 -219 -56 -400 -12 -155 -26 -238 -51 -302 -16
-42 -20 -68 -16 -123 3 -57 0 -80 -19 -125 -33 -82 -54 -171 -59 -258 -9 -139
-21 -202 -61 -312 -15 -41 -28 -100 -29 -131 -4 -86 -16 -141 -39 -181 -19
-33 -19 -40 -7 -80 20 -64 17 -99 -12 -142 -29 -41 -34 -86 -17 -132 8 -20 7
-39 -5 -73 -26 -81 -55 -204 -61 -261 -3 -30 -12 -71 -19 -90 -8 -19 -19 -69
-25 -110 -28 -204 -29 -211 -58 -240 -67 -69 -65 -65 -49 -97 13 -23 14 -48 7
-133 -14 -163 -20 -213 -29 -235 -14 -33 -41 -198 -55 -338 -1 -15 -5 -30 -8
-33 -3 -3 -2 -21 2 -41 5 -22 4 -54 -5 -87 -20 -81 -26 -125 -26 -185 0 -31
-6 -76 -13 -101 -8 -25 -19 -99 -26 -165 -6 -66 -15 -124 -20 -129 -6 -6 -10
-24 -10 -41 0 -16 -5 -48 -12 -70 -6 -22 -11 -43 -10 -46 0 -3 3 -29 5 -57 3
-41 0 -55 -14 -68 -13 -12 -19 -31 -19 -61 0 -39 -30 -117 -52 -133 -8 -7 -19
-138 -18 -232 1 -63 -3 -85 -25 -128 l-26 -51 21 -44 21 -44 -29 -66 c-26 -59
-28 -71 -20 -118 7 -43 4 -135 -7 -217 -3 -18 -43 -129 -55 -151 -5 -10 -4
-21 3 -28 9 -9 9 -16 -1 -31 -7 -11 -12 -53 -12 -93 0 -59 -5 -84 -25 -123
-14 -27 -25 -63 -25 -81 0 -17 -4 -34 -9 -37 -8 -5 -25 -64 -22 -78 0 -5 -3
-8 -8 -8 -15 0 -19 -35 -9 -95 6 -39 5 -60 -1 -65 -6 -3 -9 -19 -7 -36 2 -17
-4 -53 -13 -80 -19 -54 -21 -92 -4 -102 29 -19 23 -89 -12 -132 -7 -8 -16 -26
-20 -39 -4 -14 -16 -32 -27 -40 -17 -15 -18 -21 -7 -68 7 -29 16 -53 21 -53 4
0 8 -7 8 -14 0 -23 45 -66 68 -66 50 0 242 50 294 76 14 8 39 14 55 14 16 0
33 4 39 9 10 11 150 41 187 41 13 0 34 10 47 23 14 12 27 22 30 22 3 1 16 7
30 14 14 8 34 16 45 18 76 12 225 58 269 83 35 20 67 30 94 30 38 0 102 18
145 41 30 16 109 41 114 35 3 -2 20 4 38 14 21 12 36 15 42 9 7 -7 16 -5 26 5
9 9 24 16 35 16 11 0 25 6 31 14 6 7 30 17 53 20 23 4 69 20 100 36 32 17 64
30 70 30 7 0 26 14 44 31 31 30 67 42 199 68 119 24 161 34 235 58 80 26 147
41 220 50 25 3 50 9 55 13 28 22 106 60 124 60 11 0 23 5 27 11 3 6 19 9 35 7
22 -3 35 2 56 24 30 31 49 37 39 12 -5 -13 -2 -15 11 -9 10 4 40 14 67 21 27
8 69 23 93 35 29 14 53 19 71 15 20 -5 23 -4 12 4 -14 9 -13 11 9 14 5 0 13 4
17 8 4 5 18 8 30 8 13 0 26 5 29 10 3 6 17 7 30 4 14 -4 33 0 47 10 12 9 37
16 55 16 17 0 35 5 39 12 5 8 11 6 20 -7 13 -17 15 -17 40 8 14 15 41 32 60
39 19 7 34 16 34 20 0 4 9 8 20 8 11 0 20 5 20 10 0 6 14 10 30 10 17 0 39 6
51 12 17 11 22 10 33 -5 12 -15 14 -16 20 -2 3 10 0 15 -11 15 -11 0 -13 3 -7
9 5 6 35 12 66 14 34 2 78 15 111 30 30 15 60 27 68 27 29 0 90 27 109 48 16
17 25 19 50 12 32 -9 63 -4 55 10 -3 4 16 11 42 15 25 4 58 15 72 26 14 10 53
24 86 29 68 12 145 38 145 49 0 9 69 31 96 31 11 0 24 10 29 23 7 14 20 23 40
25 17 2 35 8 40 12 6 5 31 12 55 16 25 3 50 13 57 21 7 9 21 13 33 10 11 -3
42 6 72 23 29 15 69 31 88 35 19 4 45 13 57 21 12 8 35 14 49 14 15 0 46 8 68
18 23 10 57 24 76 31 19 7 68 25 109 39 60 22 78 34 96 63 13 19 34 42 47 51
22 14 26 28 37 125 9 80 9 116 1 137 -9 25 -8 32 11 52 22 23 22 24 4 63 -12
28 -16 52 -12 79 l7 38 -38 -4 c-37 -4 -362 -90 -952 -252 -58 -16 -271 -76
-475 -134 -203 -57 -478 -134 -610 -171 -132 -36 -282 -78 -333 -92 -145 -41
-159 -26 -203 205 -17 87 -48 252 -70 367 -22 116 -50 257 -60 315 -11 58 -26
132 -34 165 -43 190 -88 388 -100 440 -36 157 -140 652 -184 885 -123 642
-204 981 -413 1735 -55 198 -115 421 -134 495 -19 74 -57 216 -84 315 -76 282
-166 657 -194 810 -64 347 -78 428 -91 550 -8 72 -15 218 -17 325 -3 184 -2
197 19 236 12 22 27 45 35 51 12 10 347 64 613 98 66 9 192 27 280 41 347 54
662 105 710 114 28 5 82 14 120 20 206 32 356 64 469 102 89 29 89 29 115 10
17 -13 28 -33 33 -62 9 -54 15 -60 24 -24 3 16 15 36 25 44 20 16 49 115 49
166 0 18 9 60 20 95 44 143 122 229 206 229 76 0 79 -7 25 -56 l-49 -44 3 -97
c2 -52 -1 -104 -6 -114 -5 -11 -14 -28 -19 -39 -6 -12 -8 -25 -5 -30 10 -16
-17 -22 -91 -21 -45 1 -74 -3 -74 -9 0 -5 18 -10 40 -10 22 0 40 -4 40 -10 0
-5 9 -10 20 -10 18 0 19 -2 8 -21 -11 -18 -11 -23 1 -27 7 -2 23 -15 34 -28
34 -39 143 -28 154 15 3 11 11 22 18 25 20 7 7 52 -16 53 -11 1 -37 10 -59 19
-38 17 -39 18 -17 30 12 7 32 18 44 23 11 5 24 14 27 20 5 7 13 7 27 -2 17
-10 22 -9 32 4 7 9 17 14 23 12 6 -2 19 8 28 22 21 32 12 32 -35 -1 -36 -25
-38 -25 -69 -9 -37 19 -56 55 -42 81 9 16 10 16 16 -4 9 -28 22 -28 30 1 9 36
7 77 -5 77 -6 0 -9 7 -5 15 3 9 0 15 -10 15 -9 0 -14 7 -12 18 2 12 16 19 46
23 51 7 71 -3 53 -25 -10 -12 -8 -17 16 -30 15 -8 38 -28 51 -44 20 -26 28
-30 65 -28 23 2 47 -1 54 -6 8 -7 10 -3 6 12 -4 15 -12 20 -24 17 -12 -3 -26
9 -48 42 -17 25 -36 54 -43 63 -23 32 3 33 30 2 58 -67 61 -71 49 -83 -8 -8
-5 -11 10 -11 13 0 31 -13 43 -30 20 -29 25 -30 95 -30 65 0 74 2 80 20 3 11
15 20 25 20 13 0 17 5 13 20 -4 14 0 20 11 20 18 0 22 16 5 22 -20 7 83 98
109 98 5 0 22 12 38 27 31 29 30 29 199 35 l100 3 58 -38 c32 -22 63 -49 68
-60 6 -12 34 -40 62 -61 29 -22 68 -59 87 -82 19 -24 52 -62 72 -85 21 -24 40
-50 43 -59 9 -25 76 -70 105 -70 14 0 51 15 82 33 104 63 223 125 303 157 92
38 226 52 280 30 17 -7 40 -13 53 -14 29 -2 98 62 148 136 19 29 76 99 125
155 49 55 89 106 89 112 0 18 -49 38 -290 120 -117 40 -203 60 -455 106 -77
14 -158 30 -181 35 -42 10 -120 23 -394 65 -179 27 -314 50 -385 65 -27 6 -60
13 -73 16 -13 3 -20 9 -16 15 13 22 -89 -1 -481 -107 -132 -36 -269 -73 -305
-84 -36 -10 -128 -34 -205 -55 -77 -20 -230 -61 -340 -90 -328 -89 -663 -165
-722 -165 -13 0 -37 7 -53 15 -31 16 -115 131 -172 235 -89 163 -103 189 -129
260 -15 41 -68 176 -118 300 -107 263 -102 250 -224 580 -141 379 -348 1009
-471 1430 -13 47 -45 153 -69 235 -25 83 -77 258 -116 390 -39 132 -81 272
-93 310 -38 126 -197 750 -228 900 -113 535 -151 767 -174 1060 -26 315 -54
751 -60 910 -8 226 -54 667 -96 926 -30 185 -11 300 51 307 25 3 135 -30 284
-84 198 -73 262 -97 280 -105 68 -31 467 -147 575 -166 14 -3 77 -16 140 -30
172 -38 191 -42 245 -52 28 -5 112 -21 188 -35 185 -35 277 -35 277 0 0 8 12
19 28 25 15 6 41 18 59 26 51 25 157 3 137 -28 -2 -4 12 -33 31 -65 20 -32 43
-83 51 -114 28 -96 64 -173 120 -256 59 -89 81 -108 147 -125 39 -11 49 -10
100 14 31 14 57 30 57 35 0 5 -24 14 -54 21 -89 20 -169 91 -216 192 -11 24
-30 59 -41 76 -20 32 -20 34 -4 100 26 102 51 143 70 113 13 -22 76 -38 171
-45 55 -4 106 -13 114 -20 8 -7 34 -15 57 -19 40 -6 43 -4 100 53 63 62 103
84 103 56 0 -8 -7 -18 -16 -22 -8 -3 -13 -12 -10 -20 3 -7 -2 -32 -10 -54 -15
-35 -15 -42 -2 -57 8 -9 18 -25 21 -35 9 -24 74 -21 69 3 -8 32 -1 165 8 190
1 3 2 8 1 12 0 4 17 14 38 24 37 16 39 18 34 58 l-5 41 29 -32 c16 -18 38 -33
50 -33 12 0 71 -16 130 -35 59 -19 116 -35 125 -35 10 0 28 21 45 54 32 63
111 133 160 142 33 6 132 -22 183 -53 66 -39 114 -165 106 -283 -7 -112 -14
-150 -41 -205 -37 -78 -85 -186 -85 -194 0 -12 90 -103 139 -141 53 -41 125
-49 145 -16 16 26 62 81 131 154 157 167 565 377 784 403 l74 8 106 103 c58
57 108 107 110 111 4 9 -179 184 -255 243 -28 22 -96 67 -150 99 -55 32 -121
72 -149 90 -90 56 -134 73 -425 157 -282 81 -428 114 -669 153 -181 28 -263
71 -246 126 5 14 1 25 -12 34 -17 14 -17 14 4 15 12 0 23 6 26 13 3 8 9 6 20
-8 12 -16 17 -17 30 -6 9 7 20 10 25 7 17 -10 10 49 -8 69 -9 11 -17 27 -17
35 0 8 -4 27 -8 43 -6 24 -5 27 19 27 18 0 30 -8 38 -25 6 -14 17 -25 25 -25
18 0 17 45 -3 64 -14 14 -243 16 -2375 16 l-2359 0 2 -387z m4573 139 c-3 -3
-11 0 -18 7 -9 10 -8 11 6 5 10 -3 15 -9 12 -12z m-591 -578 c33 -8 72 -23 85
-31 l25 -16 -28 -24 c-27 -23 -28 -24 -12 -57 21 -44 21 -45 -10 -56 -17 -7
-32 -6 -46 1 -17 9 -24 7 -42 -14 -11 -14 -32 -30 -44 -37 -13 -6 -30 -27 -38
-46 l-14 -34 -39 25 c-22 13 -51 27 -64 31 -14 3 -28 13 -31 21 -5 12 -15 14
-42 10 l-36 -6 5 35 c3 19 23 60 44 92 30 45 51 63 101 89 72 37 98 40 186 17z
m167 -169 c-1 -15 -24 -12 -29 3 -3 9 2 13 12 10 10 -1 17 -7 17 -13z m19
-110 c0 -9 -6 -12 -15 -9 -8 4 -15 10 -15 15 0 5 7 9 15 9 8 0 15 -7 15 -15z
m-222 -46 c58 -15 79 -29 60 -40 -25 -16 -85 -9 -112 12 -49 38 -31 48 52 28z
m242 -15 c0 -9 -7 -14 -17 -12 -25 5 -28 28 -4 28 12 0 21 -6 21 -16z m-50 -4
c0 -12 -28 -25 -36 -17 -9 9 6 27 22 27 8 0 14 -5 14 -10z"/>
<path d="M13369 19913 c0 -49 -6 -138 -13 -199 -15 -139 -4 -209 40 -255 16
-17 38 -35 48 -41 20 -11 140 -44 211 -58 65 -12 247 -51 290 -61 22 -5 65
-14 95 -19 53 -9 102 -19 355 -73 66 -14 170 -33 230 -42 61 -9 153 -25 205
-35 162 -32 522 -62 548 -46 7 4 16 5 21 2 13 -9 80 62 97 102 27 67 11 131
-46 184 -61 55 -152 90 -739 284 -326 108 -387 132 -425 168 -32 30 -72 94
-86 139 l-12 37 -409 0 -409 0 -1 -87z"/>
<path d="M18056 19938 c-7 -71 -15 -213 -20 -332 -5 -98 -13 -188 -31 -331
-16 -125 -22 -181 -35 -315 -6 -52 -14 -129 -20 -172 -10 -81 -7 -96 35 -149
38 -49 80 -62 169 -56 143 11 350 37 384 50 31 11 33 14 27 47 -4 19 -33 74
-65 121 -52 77 -98 179 -120 264 -7 29 -68 239 -92 320 -7 22 -13 47 -14 55
-1 8 -12 51 -24 95 -12 44 -28 107 -36 140 -7 33 -20 87 -27 120 -8 33 -23 93
-32 133 l-17 72 -38 0 -38 0 -6 -62z"/>
<path d="M4955 18931 c-19 -8 -19 -8 2 -19 28 -15 53 -15 53 0 0 6 -3 8 -7 5
-3 -4 -11 0 -17 7 -7 9 -18 11 -31 7z"/>
<path d="M5053 18826 c7 -14 13 -23 15 -21 7 6 -9 45 -18 45 -4 0 -3 -11 3
-24z"/>
<path d="M4753 18643 c-19 -4 -23 -11 -23 -44 0 -35 13 -54 22 -29 2 5 28 13
58 18 l55 8 -42 27 c-24 15 -44 26 -45 26 -2 -1 -13 -4 -25 -6z"/>
<path d="M4648 18599 c-21 -12 -24 -52 -4 -68 19 -16 46 -3 57 28 8 20 7 28
-7 38 -21 15 -24 15 -46 2z"/>
<path d="M4436 18593 c-4 -5 -42 -8 -84 -8 -67 0 -77 -2 -76 -17 1 -10 -2 -15
-7 -12 -17 10 -9 -9 9 -22 26 -20 79 -17 99 5 16 19 17 19 60 -5 47 -26 92
-30 142 -13 17 6 31 12 31 13 0 2 -7 17 -16 34 -15 31 -17 32 -83 32 -37 0
-71 -3 -75 -7z"/>
<path d="M4760 18521 c0 -34 73 -113 88 -95 4 4 1 9 -5 11 -22 8 -14 39 12 53
32 17 26 22 -41 36 -46 9 -54 8 -54 -5z"/>
<path d="M4152 18478 c-15 -15 -16 -48 -2 -48 16 0 51 40 45 50 -8 14 -29 12
-43 -2z"/>
<path d="M4867 18339 c7 -7 9 -25 6 -42 -5 -22 -3 -29 8 -25 23 8 10 78 -14
78 -8 0 -8 -3 0 -11z"/>
<path d="M22327 18213 c-14 -17 -22 -53 -32 -143 -2 -19 -8 -75 -14 -125 -6
-49 -14 -128 -18 -175 -3 -47 -9 -90 -14 -96 -4 -5 -6 -20 -2 -32 3 -12 -2
-55 -10 -95 -22 -102 -55 -317 -73 -471 -3 -27 -9 -57 -15 -67 -8 -16 -28
-101 -49 -219 -5 -25 -16 -81 -24 -125 -8 -44 -17 -93 -21 -110 -7 -38 -35
-162 -45 -195 -16 -56 -11 -138 10 -179 11 -23 27 -41 34 -41 7 0 19 -6 25
-14 7 -8 27 -21 46 -30 45 -22 231 -32 280 -16 43 14 130 109 140 153 5 18 9
241 11 497 2 264 9 562 17 690 13 192 13 234 1 291 -23 109 -108 342 -139 379
-7 8 -15 26 -18 40 -6 26 -56 99 -68 100 -3 0 -13 -8 -22 -17z"/>
<path d="M3100 18041 c-27 -7 -50 -43 -50 -78 0 -13 -4 -23 -9 -23 -15 0 -34
-88 -28 -131 9 -66 63 -159 120 -204 28 -22 55 -49 61 -60 6 -11 12 -22 13
-24 7 -12 53 34 64 64 14 38 24 44 33 19 9 -24 24 -8 31 35 7 45 -16 127 -43
147 -9 8 -33 14 -52 14 -31 0 -36 4 -46 35 -7 24 -8 37 0 45 7 7 6 14 -1 21
-9 9 -8 15 2 25 7 8 11 22 8 33 -5 21 -61 92 -71 90 -4 -1 -18 -4 -32 -8z"/>
<path d="M21020 14159 c-47 -26 -92 -48 -101 -48 -9 -1 -22 -8 -29 -16 -7 -8
-18 -15 -24 -15 -6 0 -27 -12 -46 -28 -19 -15 -47 -34 -62 -41 -15 -8 -30 -21
-34 -30 -4 -9 -8 -86 -9 -171 -2 -154 -18 -315 -55 -565 -43 -283 -50 -335
-64 -460 -9 -71 -18 -170 -22 -220 -4 -49 -9 -108 -12 -130 -3 -22 -6 -77 -8
-122 -1 -45 -5 -87 -9 -93 -3 -5 -4 -13 -2 -17 3 -5 1 -48 -4 -98 -8 -81 -23
-370 -22 -420 2 -58 25 -105 74 -147 57 -48 143 -81 172 -66 10 5 25 7 33 4
25 -9 216 46 255 74 19 14 51 43 70 65 19 22 37 42 40 45 4 3 16 28 28 55 12
28 27 59 33 69 11 20 14 86 22 441 5 210 23 614 31 690 2 22 7 121 10 220 4
99 11 243 16 320 6 77 11 172 11 210 0 79 -24 230 -48 302 -29 84 -102 233
-116 234 -7 0 -20 2 -28 3 -8 2 -53 -18 -100 -45z"/>
<path d="M14589 13822 c-5 -15 -17 -45 -25 -67 -8 -22 -13 -51 -11 -65 3 -14
0 -31 -6 -38 -6 -8 -13 -166 -19 -410 -5 -218 -12 -523 -17 -677 -7 -248 -5
-798 3 -865 12 -91 77 -150 166 -150 97 0 219 47 282 109 17 17 34 31 38 31
10 0 40 57 33 64 -3 3 -2 6 4 6 22 0 11 76 -22 145 -32 69 -52 151 -75 315
-23 165 -47 307 -85 501 -14 69 -29 152 -34 185 -5 32 -18 111 -30 174 -11 63
-22 135 -24 160 -12 120 -56 393 -75 460 -8 30 -16 62 -17 70 -9 69 -67 104
-86 52z"/>
<path d="M10237 13742 c-30 -33 -14 -86 28 -94 15 -2 22 6 32 36 12 34 11 41
-3 57 -21 24 -36 24 -57 1z"/>
<path d="M12793 13683 c-1 -10 5 -40 12 -68 8 -27 19 -78 25 -112 10 -47 19
-68 42 -89 34 -29 133 -68 154 -60 8 3 14 1 14 -3 0 -24 92 23 154 79 104 92
118 128 72 184 -21 25 -36 31 -108 42 -45 8 -119 20 -163 29 -44 8 -107 15
-141 15 -51 0 -61 -3 -61 -17z"/>
<path d="M12116 13509 c-21 -11 -49 -33 -63 -49 -13 -16 -48 -41 -78 -57 -30
-15 -55 -31 -55 -35 0 -4 -9 -8 -21 -8 -11 0 -45 -24 -76 -52 -54 -52 -56 -53
-117 -53 -59 0 -66 3 -122 45 -32 25 -60 48 -62 53 -10 22 -45 -6 -80 -64 -66
-109 -110 -151 -208 -198 -88 -42 -140 -86 -148 -123 -23 -114 -10 -221 30
-256 32 -28 60 -25 143 15 49 24 66 27 141 25 117 -3 159 14 201 79 32 50 131
128 223 175 31 16 44 31 55 60 21 61 43 104 52 104 14 0 80 48 100 74 11 13
35 35 55 47 20 12 48 33 62 45 14 13 29 24 34 24 5 0 18 8 28 18 17 16 19 25
11 66 -5 28 -18 54 -31 66 -28 25 -27 25 -74 -1z"/>
<path d="M10208 12782 c-24 -52 -26 -70 -33 -222 -7 -143 -10 -181 -25 -298
-6 -40 -10 -102 -10 -138 0 -35 -7 -110 -15 -166 -9 -56 -14 -107 -11 -113 5
-13 -18 -244 -54 -530 -5 -44 -17 -152 -26 -240 -9 -88 -22 -212 -31 -275 -8
-63 -17 -164 -19 -225 -3 -60 -11 -168 -19 -240 -15 -134 -30 -322 -40 -505
-3 -58 -8 -118 -10 -135 -5 -40 -22 -230 -40 -455 -8 -102 -17 -198 -20 -215
-3 -16 -8 -111 -11 -210 -3 -99 -9 -209 -14 -245 -19 -132 -22 -174 -31 -372
-12 -292 -26 -552 -38 -713 -27 -373 -29 -477 -9 -513 25 -48 73 -52 223 -21
118 25 155 21 207 -21 54 -45 62 -92 48 -276 -7 -82 -14 -261 -16 -399 -2
-137 -11 -322 -19 -410 -23 -237 -23 -247 -30 -540 -3 -148 -8 -281 -10 -295
-2 -14 -7 -126 -10 -250 -4 -159 -12 -258 -26 -340 -17 -93 -20 -138 -15 -245
4 -71 2 -209 -3 -305 -7 -134 -5 -198 5 -273 16 -113 31 -147 77 -176 31 -19
40 -20 93 -10 32 6 75 20 96 30 33 17 173 113 188 129 3 3 39 30 80 60 101 74
96 70 138 112 20 21 40 38 44 38 4 0 20 12 35 26 15 14 55 47 88 72 33 25 130
103 217 174 86 70 161 128 167 128 6 0 11 4 11 8 0 5 36 35 80 66 74 54 172
129 230 176 66 53 98 78 135 102 22 14 52 36 67 49 14 13 39 35 55 48 15 13
46 40 69 60 22 20 58 50 79 66 21 17 47 38 57 47 10 10 20 18 23 18 3 0 11 5
18 10 7 6 39 31 72 56 33 25 80 62 104 82 24 20 53 43 63 50 113 81 111 101
-87 742 -110 355 -173 553 -310 975 -74 226 -139 430 -146 455 -6 25 -15 54
-19 65 -8 19 -24 72 -70 235 -31 108 -56 181 -105 300 -24 58 -56 137 -71 175
-15 39 -32 76 -38 84 -17 21 -23 -28 -14 -124 3 -44 2 -87 -3 -97 -5 -9 -9
-24 -9 -33 0 -9 -14 -38 -31 -64 -48 -72 -115 -102 -244 -108 -97 -5 -101 -4
-146 25 -61 39 -77 78 -90 214 -5 62 -19 185 -30 273 -10 88 -35 318 -54 510
-34 341 -45 437 -65 560 -5 33 -21 150 -35 260 -14 110 -39 288 -55 395 -16
107 -39 265 -50 350 -11 85 -26 193 -34 240 -8 47 -28 175 -46 285 -17 110
-35 223 -40 250 -15 94 -61 350 -70 390 -5 22 -21 103 -36 180 -14 77 -38 203
-54 280 -16 77 -35 176 -44 220 -15 79 -50 293 -60 370 -19 152 -65 355 -87
381 -17 21 -22 17 -41 -24z"/>
<path d="M4165 10404 c-15 -28 -16 -38 -5 -63 13 -33 69 -61 121 -61 32 0 129
46 129 62 0 4 -20 8 -44 8 -25 0 -51 6 -58 13 -7 7 -38 27 -69 43 l-56 31 -18
-33z"/>
<path d="M3690 10124 c-11 -33 -10 -86 4 -178 11 -67 78 -145 127 -146 31 0
41 11 58 60 10 29 9 37 -4 46 -18 13 -20 35 -4 51 13 13 4 33 -16 33 -18 0
-68 77 -60 90 4 6 -1 13 -9 16 -8 3 -18 14 -21 23 -4 15 -43 41 -60 41 -2 0
-9 -16 -15 -36z"/>
<path d="M4000 10143 c2 -67 62 -300 75 -293 16 8 14 61 -5 141 -10 42 -16 86
-13 97 2 11 0 23 -6 26 -6 4 -11 16 -11 27 0 12 -7 19 -20 19 -13 0 -20 -7
-20 -17z"/>
<path d="M23216 9747 c-11 -8 -18 -32 -21 -79 -2 -38 0 -68 5 -68 4 0 6 -8 3
-19 -3 -14 2 -20 24 -24 15 -3 30 -1 31 4 2 5 10 9 18 9 10 0 14 13 14 49 0
57 -9 86 -37 118 -17 19 -23 20 -37 10z"/>
<path d="M21790 8656 c0 -9 -6 -16 -14 -16 -9 0 -15 -18 -19 -54 -3 -30 -13
-66 -22 -80 -17 -25 -17 -26 6 -27 l24 0 -22 -9 c-13 -5 -24 -13 -24 -17 -1
-4 -3 -19 -4 -33 -2 -14 -10 -55 -19 -92 -8 -37 -15 -75 -15 -85 -1 -10 -3
-69 -6 -131 -3 -64 -2 -111 3 -108 5 3 7 -6 4 -19 -2 -14 0 -25 6 -25 6 0 14
-9 17 -20 3 -11 15 -20 26 -20 10 0 19 -4 19 -9 0 -18 61 -21 93 -4 18 9 36
16 42 14 5 -1 7 1 3 5 -4 4 1 14 11 23 49 42 74 209 53 346 -6 39 -14 96 -17
128 -4 37 -11 57 -20 57 -7 0 -16 16 -19 35 -4 19 -11 37 -16 40 -6 3 -7 -2
-4 -12 5 -17 5 -17 -6 0 -7 10 -9 30 -6 44 4 14 3 22 -3 19 -5 -3 -14 6 -19
21 -10 27 -11 28 -17 6 -4 -13 -11 -20 -17 -17 -5 3 -6 14 -3 24 3 10 1 21 -5
25 -5 3 -10 -1 -10 -9z"/>
<path d="M28102 8584 c-23 -9 -55 -29 -71 -45 -16 -16 -34 -29 -40 -29 -6 0
-11 -3 -11 -7 0 -5 -17 -26 -38 -47 -36 -39 -37 -42 -36 -111 1 -39 7 -82 14
-95 26 -51 118 -124 229 -180 59 -30 68 -32 183 -33 115 -1 122 0 139 22 11
13 19 34 19 48 0 45 -23 168 -34 182 -6 8 -22 40 -36 73 -30 69 -109 165 -167
202 -53 34 -96 40 -151 20z"/>
<path d="M27440 7090 c-76 -18 -107 -28 -150 -50 -80 -41 -92 -61 -134 -236
-21 -88 -40 -166 -44 -174 -3 -8 -6 -28 -8 -45 -1 -16 -7 -68 -13 -115 -5 -47
-15 -159 -21 -250 -15 -231 -19 -270 -29 -326 -6 -31 -6 -51 0 -55 6 -4 6 -16
-2 -32 -8 -18 -9 -37 -2 -65 6 -22 6 -48 1 -61 -10 -27 0 -71 16 -71 7 0 6 -3
-2 -9 -10 -6 -10 -15 4 -42 30 -60 34 -68 34 -81 0 -7 12 -24 25 -37 14 -13
25 -18 25 -12 0 24 16 9 34 -32 12 -28 20 -36 23 -26 3 12 14 17 36 17 18 -1
43 5 57 11 54 26 92 48 98 57 15 20 86 44 135 45 46 0 108 15 82 19 -5 1 3 5
18 10 33 10 137 1 137 -11 0 -5 11 -9 24 -9 14 0 27 -4 30 -9 6 -8 69 -24 106
-26 14 -1 55 32 55 45 1 3 7 16 15 30 21 39 25 172 7 254 -9 39 -26 118 -38
176 -12 58 -32 150 -45 205 -13 55 -31 136 -40 180 -36 172 -52 242 -80 339
-8 26 -14 60 -14 74 0 35 -38 157 -62 200 -23 41 -48 68 -95 100 -33 23 -111
28 -183 12z"/>
<path d="M29403 5526 c-14 -6 -23 -20 -23 -34 0 -13 -4 -20 -10 -17 -6 4 -10
-6 -10 -23 0 -15 -13 -55 -30 -87 -16 -32 -30 -64 -30 -71 0 -7 -3 -14 -7 -16
-12 -5 -43 -100 -43 -130 0 -16 -4 -28 -9 -28 -5 0 -12 -21 -16 -46 -10 -66
-14 -74 -42 -74 -16 0 -27 -7 -30 -20 -3 -11 -14 -20 -24 -20 -20 0 -88 -67
-89 -87 0 -6 -17 -22 -37 -34 -21 -12 -54 -35 -75 -51 -25 -20 -38 -25 -41
-16 -3 8 -6 6 -6 -4 -1 -10 -7 -18 -15 -18 -7 0 -19 -7 -26 -15 -7 -9 -37 -27
-67 -41 -29 -14 -53 -29 -53 -33 0 -15 -54 -62 -66 -57 -6 2 -21 -2 -33 -11
-12 -8 -38 -15 -57 -15 -25 0 -49 -11 -91 -44 -31 -24 -62 -44 -69 -44 -7 0
-21 -14 -31 -30 -9 -17 -25 -33 -35 -36 -10 -3 -18 -15 -18 -27 0 -27 -33 -77
-94 -139 -25 -27 -48 -59 -52 -73 -3 -14 -13 -25 -21 -25 -8 0 -12 -4 -8 -10
3 -5 1 -17 -4 -27 -5 -10 -17 -36 -27 -58 -9 -22 -20 -42 -24 -45 -11 -8 -89
-183 -94 -213 -3 -16 -14 -47 -24 -70 -11 -23 -23 -54 -26 -69 -4 -16 -11 -28
-16 -28 -6 0 -10 -8 -10 -17 0 -25 -31 -103 -41 -103 -5 0 -9 -11 -9 -24 0
-23 -23 -56 -39 -56 -19 0 -51 -43 -51 -70 0 -17 -4 -30 -10 -30 -5 0 -10 -10
-10 -22 0 -12 -11 -54 -25 -94 -14 -39 -27 -89 -30 -109 -2 -20 -10 -43 -16
-51 -6 -8 -9 -21 -5 -29 3 -8 2 -15 -3 -15 -5 0 -12 -25 -16 -57 -4 -31 -16
-84 -27 -117 -10 -34 -21 -79 -23 -101 -2 -22 -9 -74 -15 -115 -31 -222 -50
-441 -57 -655 -11 -381 -7 -526 17 -599 6 -16 10 -37 10 -47 0 -10 5 -30 12
-46 6 -15 12 -44 13 -64 1 -20 8 -51 17 -70 9 -19 19 -53 23 -76 3 -23 15 -59
26 -80 10 -20 19 -47 19 -60 0 -12 4 -24 9 -27 5 -4 12 -24 16 -45 4 -22 13
-42 21 -45 8 -3 14 -16 14 -29 0 -14 9 -36 20 -50 11 -14 20 -30 20 -36 0 -6
9 -15 20 -21 11 -6 20 -17 20 -24 0 -21 81 -56 129 -56 26 0 53 7 70 19 32 23
135 38 145 22 4 -6 20 -11 37 -11 19 0 29 -5 29 -15 0 -9 6 -12 15 -9 8 4 15
1 15 -5 0 -6 14 -17 30 -26 21 -11 30 -12 30 -4 0 7 12 -1 26 -16 25 -28 27
-28 40 -10 8 10 14 14 14 8 0 -8 7 -8 25 0 14 7 25 15 25 19 0 4 43 21 96 38
83 27 101 30 125 19 16 -6 29 -15 29 -20 0 -18 32 -8 37 11 7 25 43 27 41 3
-5 -59 17 -91 24 -35 2 20 9 28 26 30 20 3 23 0 18 -16 -4 -11 -2 -24 5 -27 8
-6 7 -10 -2 -16 -11 -7 -9 -9 6 -9 13 0 25 -11 34 -32 8 -18 23 -40 33 -49 26
-23 22 -38 -8 -36 -15 1 -29 -3 -31 -9 -2 -7 4 -11 14 -10 13 1 19 -10 26 -46
6 -30 14 -48 23 -48 8 0 14 -7 14 -15 0 -8 6 -24 13 -35 10 -17 9 -22 -2 -29
-11 -7 -9 -11 8 -21 22 -11 22 -12 5 -31 -11 -12 -13 -19 -5 -19 7 0 10 -4 6
-9 -3 -5 -1 -12 5 -16 6 -4 7 -12 0 -24 -6 -12 -5 -22 2 -29 9 -9 9 -12 0 -12
-7 0 -12 -16 -12 -40 l0 -40 310 0 c258 0 310 2 310 14 0 8 -7 16 -15 20 -8 3
-24 20 -35 38 -11 18 -30 35 -42 38 -13 3 -25 15 -27 25 -2 11 -6 22 -10 25
-4 3 -18 21 -31 40 -13 19 -30 40 -36 45 -18 15 -29 75 -13 75 7 0 10 2 7 5
-10 10 -38 -7 -39 -24 0 -12 -2 -12 -8 4 -8 20 8 45 28 45 6 0 11 5 11 11 0 7
-10 9 -24 7 -15 -3 -27 2 -35 14 -9 14 -8 18 3 18 8 0 17 6 20 13 3 6 3 2 0
-10 -4 -18 -2 -22 10 -17 12 4 13 11 5 32 -6 15 -18 35 -26 44 -15 17 -15 18
0 18 13 0 17 9 17 39 0 22 -5 41 -12 44 -10 3 -10 9 0 26 19 32 15 57 -9 58
-32 3 -45 19 -30 37 8 10 9 16 1 21 -14 9 -13 95 2 95 9 0 9 3 0 12 -7 7 -12
19 -12 29 0 9 -11 28 -25 41 -20 21 -24 33 -21 62 3 20 1 36 -4 36 -6 0 -10
-6 -11 -12 -1 -7 -5 -2 -9 12 -13 42 -12 218 2 222 7 3 11 24 11 59 -1 47 4
113 22 259 2 19 7 62 11 95 4 33 11 62 15 65 5 3 12 39 15 80 4 41 13 84 20
95 15 25 19 191 4 200 -14 9 -12 25 4 25 9 0 15 19 20 61 6 62 29 145 72 257
13 34 24 69 24 77 0 9 9 34 19 58 25 54 44 125 36 137 -11 17 19 145 42 179
15 24 19 38 13 47 -7 8 -5 15 5 24 9 7 14 19 11 27 -3 7 0 13 5 13 6 0 9 9 6
20 -3 10 1 24 8 30 7 6 18 32 25 58 6 26 16 55 21 65 5 10 7 22 3 28 -3 5 -1
16 6 24 6 7 11 41 12 74 0 34 4 63 7 65 9 6 6 131 -4 147 -11 17 -14 119 -4
139 4 8 12 35 19 60 6 25 18 64 25 88 9 27 10 40 3 36 -7 -5 -9 4 -4 27 6 36
15 131 19 216 1 34 6 53 15 53 6 0 12 6 12 14 0 8 -6 17 -12 19 -10 4 -10 8
-2 14 7 4 10 25 9 45 -2 21 1 40 6 44 5 3 5 12 0 22 -9 18 -8 142 4 295 7 90
-8 177 -30 177 -5 0 -3 5 5 10 12 7 12 12 2 22 -6 6 -12 20 -12 30 0 10 -4 18
-10 18 -5 0 -10 18 -10 40 0 22 -4 40 -10 40 -5 0 -10 28 -11 63 -1 44 -3 55
-8 37 -7 -21 -9 -18 -15 25 -4 28 -16 79 -26 115 -11 36 -20 73 -20 82 0 9 -6
18 -14 21 -7 3 -16 19 -19 35 -3 17 -18 54 -32 83 -14 29 -25 62 -25 74 0 27
-47 95 -65 95 -8 0 -14 5 -12 11 3 16 -14 18 -40 5z m-1206 -4882 c-3 -3 -12
-4 -19 -1 -8 3 -5 6 6 6 11 1 17 -2 13 -5z m-204 -31 c-7 -2 -19 -2 -25 0 -7
3 -2 5 12 5 14 0 19 -2 13 -5z"/>
<path d="M22460 5509 c0 -9 -7 -19 -15 -23 -8 -3 -15 -14 -15 -24 0 -10 -7
-19 -15 -19 -8 0 -15 9 -15 19 0 10 -4 18 -10 18 -5 0 -10 -9 -10 -19 0 -11
-4 -21 -8 -23 -8 -3 -52 -92 -52 -106 0 -4 -10 -12 -22 -17 -15 -7 -24 -20
-26 -40 -2 -16 -9 -35 -16 -40 -8 -6 -17 -29 -21 -53 -4 -23 -11 -44 -16 -48
-5 -3 -7 -9 -5 -13 3 -4 -2 -52 -10 -107 -8 -54 -19 -144 -24 -199 -5 -55 -14
-143 -19 -195 -6 -52 -16 -149 -22 -215 -5 -66 -15 -163 -20 -215 -11 -107
-28 -313 -34 -408 -2 -34 -9 -100 -16 -145 -18 -131 -16 -209 6 -243 11 -16
18 -32 17 -37 -1 -4 9 -12 22 -17 13 -5 27 -13 30 -19 3 -5 19 -12 35 -16 16
-3 46 -15 67 -26 58 -29 91 -24 174 25 78 46 194 160 237 233 30 51 104 201
103 208 -1 3 6 18 16 32 9 15 19 52 21 82 3 31 8 61 13 66 11 15 13 205 1 218
-5 7 -11 32 -13 57 -2 25 -6 50 -10 55 -8 14 -23 106 -20 128 1 9 -3 17 -8 17
-6 0 -10 16 -10 35 0 27 -4 35 -17 35 -14 0 -15 2 -4 9 7 5 10 14 7 20 -4 6
-9 26 -11 44 -2 18 -10 45 -18 61 -9 16 -14 33 -11 37 3 5 -1 21 -9 36 -7 15
-15 45 -16 65 -1 20 -8 52 -15 70 -8 18 -17 56 -21 83 -4 28 -13 68 -21 90
-12 36 -23 101 -41 248 -3 26 -9 47 -14 47 -5 0 -9 9 -9 21 0 11 -11 45 -25
75 -14 30 -25 58 -25 63 0 16 -39 85 -40 70z"/>
<path d="M22526 5405 c8 -37 14 -45 14 -19 0 10 -5 26 -10 34 -8 11 -9 7 -4
-15z"/>
<path d="M4858 3043 c-57 -6 -106 -12 -110 -12 -4 -1 -6 -10 -5 -21 1 -19 33
-38 44 -26 12 12 41 -14 36 -33 -4 -15 4 -22 39 -33 33 -11 44 -20 46 -39 2
-13 10 -31 18 -40 8 -9 17 -26 19 -39 2 -13 10 -30 18 -39 18 -22 47 -88 47
-107 0 -8 9 -32 20 -53 10 -21 17 -41 14 -43 -8 -9 88 -50 128 -56 35 -4 41
-1 95 55 73 75 121 91 187 62 23 -10 51 -27 61 -39 18 -19 18 -21 -1 -41 -13
-15 -16 -24 -8 -36 17 -28 32 -26 36 4 l3 28 15 -25 c10 -17 15 -55 16 -120 1
-53 6 -105 12 -116 12 -24 8 -49 -19 -101 -11 -22 -19 -58 -19 -88 0 -66 -16
-89 -66 -89 -30 -1 -52 -11 -96 -46 -32 -25 -58 -49 -58 -55 0 -13 83 -176
154 -303 82 -146 141 -203 181 -174 6 4 46 54 90 112 248 329 550 564 805 625
95 22 127 44 174 116 45 70 99 120 154 145 48 20 51 32 20 61 -50 44 -201 144
-290 191 -51 27 -122 65 -158 85 -297 161 -702 263 -1174 297 -174 13 -273 11
-428 -7z"/>
<path d="M4616 2544 c-10 -25 -1 -27 19 -4 15 17 16 20 3 20 -9 0 -19 -7 -22
-16z"/>
<path d="M4690 2545 c0 -8 2 -15 4 -15 2 0 6 7 10 15 3 8 1 15 -4 15 -6 0 -10
-7 -10 -15z"/>
<path d="M5463 2553 c-22 -8 -14 -23 12 -23 16 0 25 6 25 15 0 15 -14 18 -37
8z"/>
<path d="M4355 2524 c-8 -9 -15 -17 -15 -20 0 -9 27 -3 44 9 17 12 17 14 3 20
-9 3 -23 -1 -32 -9z"/>
<path d="M4586 2494 c-11 -28 -6 -72 8 -77 10 -4 12 -18 8 -54 -5 -44 -4 -47
11 -34 10 7 17 19 17 26 0 7 6 18 14 24 7 6 16 26 20 43 7 37 -21 72 -50 61
-13 -5 -16 -3 -11 10 3 9 2 17 -2 17 -5 0 -12 -7 -15 -16z"/>
<path d="M4106 2404 c-4 -20 -5 -38 -3 -40 3 -3 8 11 11 32 4 20 5 38 3 40 -3
3 -8 -11 -11 -32z"/>
<path d="M5020 2259 c-25 -5 -46 -13 -48 -19 -2 -6 -8 -8 -13 -5 -5 4 -6 -1
-3 -9 3 -9 18 -16 33 -16 14 0 43 -3 63 -6 33 -6 39 -4 47 17 5 15 5 29 -1 37
-12 13 -14 13 -78 1z"/>
<path d="M1796 2249 c-10 -6 -53 -12 -96 -14 -99 -4 -115 -9 -140 -50 -20 -32
-20 -85 0 -85 4 0 10 -19 13 -42 3 -24 13 -74 23 -111 14 -53 16 -72 7 -86 -9
-14 -9 -23 1 -36 9 -13 10 -32 5 -68 -5 -27 -6 -53 -4 -58 6 -8 6 -205 0 -344
-11 -319 -15 -377 -26 -397 -7 -13 -14 -50 -15 -83 -4 -63 -32 -260 -41 -285
-3 -8 -7 -42 -9 -75 -8 -157 -29 -293 -65 -412 -34 -113 -60 -103 261 -103
l280 0 -11 28 c-35 89 -104 298 -119 362 -26 105 -67 363 -81 504 -27 272 11
907 71 1208 26 126 26 136 -6 148 -30 12 -25 12 -48 -1z"/>
<path d="M5370 2241 c0 -12 9 -20 25 -23 21 -4 25 -1 25 18 0 19 -5 24 -25 24
-18 0 -25 -5 -25 -19z"/>
<path d="M4078 2188 c-7 -20 3 -98 13 -98 4 0 6 -6 3 -13 -2 -7 7 -28 21 -47
14 -19 25 -39 25 -46 0 -7 20 -22 44 -33 36 -18 48 -20 72 -11 35 14 94 58 94
71 0 5 -27 9 -59 9 -33 0 -63 5 -66 10 -3 6 -15 10 -25 10 -17 0 -80 76 -80
97 0 4 -8 21 -19 36 -12 19 -20 24 -23 15z"/>
<path d="M3760 1511 c0 -5 -10 -11 -22 -15 -18 -5 -20 -8 -9 -15 8 -5 11 -16
8 -25 -4 -9 -2 -16 2 -16 5 0 12 6 14 13 4 7 6 6 6 -5 1 -9 -7 -19 -16 -21
-14 -4 -13 -5 4 -6 20 -1 21 -4 13 -26 -6 -17 -6 -25 1 -25 6 0 8 -4 5 -9 -3
-5 1 -14 9 -21 19 -16 20 -44 1 -37 -10 4 -13 1 -9 -8 3 -8 -2 -17 -10 -21
-16 -6 -20 -44 -5 -44 4 0 8 -9 8 -20 0 -19 10 -24 39 -21 7 2 10 -2 7 -8 -3
-5 7 -16 23 -24 28 -14 32 -14 56 8 14 13 25 29 25 34 0 6 11 27 25 47 14 20
22 40 19 45 -3 5 3 12 13 16 12 5 -1 13 -47 27 l-65 21 -3 54 c-2 30 2 59 7
64 15 15 14 27 -4 27 -8 0 -15 4 -15 8 0 4 -18 8 -40 9 -22 1 -40 -2 -40 -6z"/>
<path d="M29521 174 c0 -11 3 -14 6 -6 3 7 2 16 -1 19 -3 4 -6 -2 -5 -13z"/>
<path d="M29601 54 c0 -11 3 -14 6 -6 3 7 2 16 -1 19 -3 4 -6 -2 -5 -13z"/>
<path d="M29650 26 c0 -2 7 -6 15 -10 8 -3 15 -1 15 4 0 6 -7 10 -15 10 -8 0
-15 -2 -15 -4z"/>
</g>
</svg>
