<?xml version="1.0" standalone="no"?>
<!DOCTYPE svg PUBLIC "-//W3C//DTD SVG 20010904//EN"
 "http://www.w3.org/TR/2001/REC-SVG-20010904/DTD/svg10.dtd">
<svg version="1.0" xmlns="http://www.w3.org/2000/svg"
 width="500.000000pt" height="500.000000pt" viewBox="0 0 500.000000 500.000000"
 preserveAspectRatio="xMidYMid meet">

<g transform="translate(0.000000,500.000000) scale(0.100000,-0.100000)"
fill="#000000" stroke="none">
<path d="M1660 3430 l0 -410 410 0 410 0 0 410 0 410 -410 0 -410 0 0 -410z
m491 134 c35 -17 87 -78 95 -110 20 -81 -22 -178 -92 -211 -39 -19 -42 -28
-15 -43 25 -13 67 -13 93 1 15 8 23 8 31 0 16 -16 -12 -41 -56 -50 -41 -10
-100 13 -129 48 -10 11 -29 21 -43 21 -38 0 -100 35 -130 74 -31 40 -43 117
-26 168 33 100 173 153 272 102z"/>
<path d="M1983 3521 c-45 -28 -66 -66 -66 -115 0 -88 72 -153 159 -143 126 14
175 155 84 242 -40 39 -128 47 -177 16z"/>
<path d="M2510 3200 l0 -410 410 0 410 0 0 410 0 410 -410 0 -410 0 0 -410z
m438 138 c8 -10 123 -261 159 -345 3 -9 -4 -13 -20 -13 -20 0 -28 8 -41 45
l-18 45 -101 0 -102 0 -18 -45 c-15 -36 -24 -45 -43 -45 l-23 0 35 78 c20 42
47 104 61 137 61 146 84 175 111 143z"/>
<path d="M2887 3207 c-20 -47 -37 -88 -37 -91 0 -3 34 -6 75 -6 54 0 75 4 74
13 0 6 -17 48 -37 91 l-37 79 -38 -86z"/>
<path d="M1975 2766 c-103 -45 -136 -189 -64 -280 25 -32 89 -66 124 -66 14 0
33 -9 43 -21 42 -50 130 -65 173 -30 35 29 14 46 -32 27 -29 -12 -39 -12 -67
-1 -40 17 -41 29 -3 45 125 51 136 237 19 313 -34 22 -53 27 -103 27 -33 -1
-74 -7 -90 -14z m151 -36 c31 -12 72 -66 80 -105 9 -49 -12 -101 -54 -133 -29
-22 -46 -27 -92 -27 -46 0 -63 5 -93 28 -70 53 -71 159 -2 214 50 40 96 47
161 23z"/>
<path d="M2919 2573 c-9 -2 -29 -32 -45 -66 -139 -308 -134 -297 -109 -297 18
0 27 9 41 45 l17 45 103 0 102 0 18 -45 c13 -36 22 -45 40 -45 13 0 24 2 24 4
0 3 -24 58 -54 123 -29 65 -64 141 -76 170 -25 58 -37 71 -61 66z m81 -220 c0
-9 -22 -13 -75 -13 -41 0 -75 1 -75 3 0 5 46 120 61 151 l14 29 37 -79 c21
-43 38 -85 38 -91z"/>
</g>
</svg>
